<svg width="18" height="18" fill="none" xmlns="http://www.w3.org/2000/svg"><path d="M12.96 1.8a3.25 3.25 0 0 1 3.24 3.24v7.92a3.25 3.25 0 0 1-3.24 3.24H5.04a3.25 3.25 0 0 1-3.23-3.24V5.04A3.25 3.25 0 0 1 5.04 1.8h7.92Zm0-1.08H5.04A4.32 4.32 0 0 0 .72 5.04v7.92a4.32 4.32 0 0 0 4.32 4.32h7.92a4.32 4.32 0 0 0 4.32-4.32V5.04A4.32 4.32 0 0 0 12.96.72Z" fill="#192144"/><path d="M9 5.82a3.19 3.19 0 1 1 0 6.38 3.19 3.19 0 0 1 0-6.38Zm0-1.08a4.27 4.27 0 1 0 0 8.54 4.27 4.27 0 0 0 0-8.54ZM13.43 5.56a.96.96 0 1 0 0-1.93.96.96 0 0 0 0 1.93Z" fill="#192144"/></svg>